<mxfile host="app.diagrams.net" agent="Mozilla/5.0 (Windows NT 10.0; Win64; x64) AppleWebKit/537.36 (KHTML, like Gecko) Chrome/131.0.0.0 Safari/537.36" version="26.0.5">
  <diagram name="Page-1" id="DUOdcFIVPEM2wyh1Bip0">
    <mxGraphModel dx="1050" dy="1665" grid="1" gridSize="10" guides="1" tooltips="1" connect="1" arrows="1" fold="1" page="1" pageScale="1" pageWidth="850" pageHeight="1100" math="0" shadow="0">
      <root>
        <mxCell id="0" />
        <mxCell id="1" parent="0" />
        <mxCell id="Cx5WWTmpdvVSmhb8b6Wk-1" value="&lt;font style=&quot;font-size: 35px;&quot;&gt;LLAMA 3.1&lt;/font&gt;" style="rounded=1;whiteSpace=wrap;html=1;" vertex="1" parent="1">
          <mxGeometry x="320" y="120" width="200" height="130" as="geometry" />
        </mxCell>
        <mxCell id="Cx5WWTmpdvVSmhb8b6Wk-10" style="edgeStyle=orthogonalEdgeStyle;rounded=0;orthogonalLoop=1;jettySize=auto;html=1;entryX=0;entryY=0.5;entryDx=0;entryDy=0;exitX=0.5;exitY=0;exitDx=0;exitDy=0;" edge="1" parent="1" source="Cx5WWTmpdvVSmhb8b6Wk-2" target="Cx5WWTmpdvVSmhb8b6Wk-1">
          <mxGeometry relative="1" as="geometry" />
        </mxCell>
        <mxCell id="Cx5WWTmpdvVSmhb8b6Wk-2" value="web search agent" style="rounded=0;whiteSpace=wrap;html=1;" vertex="1" parent="1">
          <mxGeometry x="150" y="320" width="120" height="60" as="geometry" />
        </mxCell>
        <mxCell id="Cx5WWTmpdvVSmhb8b6Wk-12" style="edgeStyle=orthogonalEdgeStyle;rounded=0;orthogonalLoop=1;jettySize=auto;html=1;entryX=0.5;entryY=1;entryDx=0;entryDy=0;" edge="1" parent="1" source="Cx5WWTmpdvVSmhb8b6Wk-3" target="Cx5WWTmpdvVSmhb8b6Wk-1">
          <mxGeometry relative="1" as="geometry" />
        </mxCell>
        <mxCell id="Cx5WWTmpdvVSmhb8b6Wk-3" value="finance agent" style="rounded=0;whiteSpace=wrap;html=1;" vertex="1" parent="1">
          <mxGeometry x="360" y="320" width="120" height="60" as="geometry" />
        </mxCell>
        <mxCell id="Cx5WWTmpdvVSmhb8b6Wk-13" style="edgeStyle=orthogonalEdgeStyle;rounded=0;orthogonalLoop=1;jettySize=auto;html=1;entryX=1;entryY=0.75;entryDx=0;entryDy=0;exitX=0.5;exitY=0;exitDx=0;exitDy=0;" edge="1" parent="1" source="Cx5WWTmpdvVSmhb8b6Wk-4" target="Cx5WWTmpdvVSmhb8b6Wk-1">
          <mxGeometry relative="1" as="geometry" />
        </mxCell>
        <mxCell id="Cx5WWTmpdvVSmhb8b6Wk-4" value="language translate agent&amp;nbsp;" style="rounded=0;whiteSpace=wrap;html=1;" vertex="1" parent="1">
          <mxGeometry x="580" y="320" width="120" height="60" as="geometry" />
        </mxCell>
        <mxCell id="Cx5WWTmpdvVSmhb8b6Wk-14" style="edgeStyle=orthogonalEdgeStyle;rounded=0;orthogonalLoop=1;jettySize=auto;html=1;entryX=0.5;entryY=0;entryDx=0;entryDy=0;" edge="1" parent="1" source="Cx5WWTmpdvVSmhb8b6Wk-5" target="Cx5WWTmpdvVSmhb8b6Wk-1">
          <mxGeometry relative="1" as="geometry" />
        </mxCell>
        <mxCell id="Cx5WWTmpdvVSmhb8b6Wk-5" value="calculation agent" style="rounded=0;whiteSpace=wrap;html=1;" vertex="1" parent="1">
          <mxGeometry x="360" y="-20" width="120" height="60" as="geometry" />
        </mxCell>
        <mxCell id="Cx5WWTmpdvVSmhb8b6Wk-6" value="vector DB" style="shape=cylinder3;whiteSpace=wrap;html=1;boundedLbl=1;backgroundOutline=1;size=15;" vertex="1" parent="1">
          <mxGeometry x="650" y="127.5" width="110" height="115" as="geometry" />
        </mxCell>
        <mxCell id="Cx5WWTmpdvVSmhb8b6Wk-15" value="Data Base search agent" style="rounded=0;whiteSpace=wrap;html=1;" vertex="1" parent="1">
          <mxGeometry x="540" y="20" width="120" height="60" as="geometry" />
        </mxCell>
        <mxCell id="Cx5WWTmpdvVSmhb8b6Wk-16" style="edgeStyle=orthogonalEdgeStyle;rounded=0;orthogonalLoop=1;jettySize=auto;html=1;entryX=0.95;entryY=0;entryDx=0;entryDy=0;entryPerimeter=0;" edge="1" parent="1" source="Cx5WWTmpdvVSmhb8b6Wk-15" target="Cx5WWTmpdvVSmhb8b6Wk-1">
          <mxGeometry relative="1" as="geometry" />
        </mxCell>
        <mxCell id="Cx5WWTmpdvVSmhb8b6Wk-17" style="edgeStyle=orthogonalEdgeStyle;rounded=0;orthogonalLoop=1;jettySize=auto;html=1;entryX=0.349;entryY=0.013;entryDx=0;entryDy=0;entryPerimeter=0;exitX=1;exitY=0.5;exitDx=0;exitDy=0;" edge="1" parent="1" source="Cx5WWTmpdvVSmhb8b6Wk-15" target="Cx5WWTmpdvVSmhb8b6Wk-6">
          <mxGeometry relative="1" as="geometry" />
        </mxCell>
        <mxCell id="Cx5WWTmpdvVSmhb8b6Wk-19" value="" style="rounded=1;whiteSpace=wrap;html=1;fillColor=none;" vertex="1" parent="1">
          <mxGeometry x="120" y="-50" width="660" height="490" as="geometry" />
        </mxCell>
      </root>
    </mxGraphModel>
  </diagram>
</mxfile>
